# Research

~~~
Input #0, mpegts, from 'CBC_DOWNTON_ABBEY_S01E05-v':
  Stream #0:0[0x12c]: Video: h264 (Constrained Baseline) ([27][0][0][0] /

Input #0, mpegts, from 'CBC_DOWNTON_ABBEY_S01E05-a':
  Stream #0:0[0x12d]: Audio: aac (LC) ([15][0][0][0] / 0x000F), 44100 Hz,
~~~
